<?xml version="1.0" standalone="no"?><!DOCTYPE svg PUBLIC "-//W3C//DTD SVG 1.1//EN" "http://www.w3.org/Graphics/SVG/1.1/DTD/svg11.dtd"><svg t="1527743018573" class="icon" style="" viewBox="0 0 1024 1024" version="1.1" xmlns="http://www.w3.org/2000/svg" p-id="4673" xmlns:xlink="http://www.w3.org/1999/xlink" width="200" height="200"><defs><style type="text/css"></style></defs><path d="M385.524 188.722q0 13.308 0 38.359 0 21.137 0 64.192 0 7.046-5.48 12.525-5.48 5.48-12.525 5.48-7.828 0-13.308-5.48-5.48-5.48-5.48-12.525 0 0 0 0 0-34.445 0-102.551 0 0 0 0 0-7.046 5.48-12.525 5.48-5.48 13.308-5.48 7.046 0 12.525 5.48 5.48 5.48 5.48 12.525zM420.752 221.601q63.41 0 189.446 0 0 8.611 0 25.834 0 3.914 0 10.96-62.627 0-189.446 0 0-3.131 0-8.611 0-9.394 0-28.182zM849.745 308.496q0 57.93 0 174.572 0 100.203 0 299.043 0 18.788-8.611 34.445-8.611 16.44-25.051 28.965-15.657 10.96-35.228 17.222-19.571 6.263-40.707 6.263-149.521 0-448.564 0-21.137 0-40.707-6.263-19.571-6.263-34.445-17.222-17.222-12.525-25.834-28.965-8.611-15.657-8.611-34.445 0-14.874 0-32.879 0-55.581 0-144.041 0-98.637 0-296.694 0-18.788 8.611-34.445 8.611-16.44 25.834-28.965 14.874-10.96 34.445-17.222 19.571-6.263 40.707-6.263 4.697 0 14.091 0 0 12.525 0 36.793-4.697 0-14.091 0-29.748 0-51.667 14.874-21.137 14.874-21.137 35.228 0 14.091 0 41.49 198.057 0 594.171 0 0-14.091 0-41.49 0-20.354-21.137-35.228-21.919-14.874-51.667-14.874-4.697 0-14.874 0 0-12.525 0-36.793 4.697 0 14.874 0 21.137 0 40.707 6.263 19.571 6.263 35.228 17.222 16.44 12.525 25.051 28.965 8.611 15.657 8.611 34.445zM813.734 782.11q0-55.581 0-168.309 0-75.935 0-227.022-198.84 0-594.954 0 0 49.319 0 147.173 0 82.98 0 248.158 0 20.354 21.919 35.228 21.137 14.874 50.884 14.874 14.091 0 41.49 0 135.43 0 407.074 0 29.748 0 51.667-14.874 21.919-14.874 21.919-35.228zM690.047 188.722q0 12.525 0 37.576 0 21.919 0 64.975 0 7.046-5.48 12.525-4.697 5.48-12.525 5.48-7.828 0-13.308-5.48-5.48-5.48-5.48-12.525 0 0 0 0 0-34.445 0-102.551 0 0 0 0 0-7.046 5.48-12.525 5.48-5.48 13.308-5.48 7.828 0 12.525 5.48 5.48 5.48 5.48 12.525z" p-id="4674"></path></svg>