<?xml version="1.0" standalone="no"?><!DOCTYPE svg PUBLIC "-//W3C//DTD SVG 1.1//EN" "http://www.w3.org/Graphics/SVG/1.1/DTD/svg11.dtd"><svg t="1528250454747" class="icon" style="" viewBox="0 0 1024 1024" version="1.1" xmlns="http://www.w3.org/2000/svg" p-id="1903" xmlns:xlink="http://www.w3.org/1999/xlink" width="200" height="200"><defs><style type="text/css"></style></defs><path d="M497.11104 842.46528c180.67456 0 327.68-147.00544 327.68-327.68s-147.00544-327.68-327.68-327.68-327.68 147.00544-327.68 327.68S316.43648 842.46528 497.11104 842.46528zM497.11104 228.06528c158.1056 0 286.72 128.6144 286.72 286.72s-128.6144 286.72-286.72 286.72-286.72-128.6144-286.72-286.72S339.02592 228.06528 497.11104 228.06528z" p-id="1904"></path><path d="M608.8704 655.50336c3.9936 3.9936 9.23648 6.00064 14.47936 6.00064s10.48576-2.00704 14.47936-6.00064c8.00768-8.00768 8.00768-20.95104 0-28.95872l-120.23808-120.23808L517.59104 285.20448c0-11.30496-9.15456-20.48-20.48-20.48s-20.48 9.17504-20.48 20.48l0 229.5808c0 5.4272 2.1504 10.6496 6.00064 14.47936L608.8704 655.50336z" p-id="1905"></path></svg>