<?xml version="1.0" standalone="no"?><!DOCTYPE svg PUBLIC "-//W3C//DTD SVG 1.1//EN" "http://www.w3.org/Graphics/SVG/1.1/DTD/svg11.dtd"><svg t="1528278570400" class="icon" style="" viewBox="0 0 1024 1024" version="1.1" xmlns="http://www.w3.org/2000/svg" p-id="4135" xmlns:xlink="http://www.w3.org/1999/xlink" width="200" height="200"><defs><style type="text/css"></style></defs><path d="M285.294698 955.771059l-93.817735-208.957079C107.117646 674.583912 60.737316 578.881247 60.737316 476.775754 60.737316 265.518283 262.648932 93.64582 510.827291 93.64582c66.443271 0 130.428561 12.025894 190.175317 35.738969 11.458983 4.544503 17.060561 17.523095 12.510942 28.976962-4.544503 11.470239-17.506722 17.076934-28.976962 12.510941-54.482869-21.626553-112.926956-32.589233-173.708274-32.589232-223.565798 0-405.453359 151.848407-405.453358 338.492294 0 90.23821 42.157145 175.168532 118.702495 239.148705l3.939729 3.296069 79.716577 177.549766 182.612061-81.994456 5.149276 0.163729c5.426593 0.173962 10.357905 0.332575 15.33322 0.332574 223.565798 0 405.447219-151.848407 405.447219-338.49741 0-57.098439-17.381879-113.553219-50.27094-163.263388-6.79987-10.276041-3.977591-24.127514 6.29845-30.927383s24.116257-3.982708 30.927383 6.29845c37.738509 57.032948 57.681724 122.004705 57.681724 187.892321 0 211.261565-201.906499 383.134027-450.083836 383.134027-3.879354 0-7.737218-0.086981-11.589966-0.196475L285.294698 955.771059zM715.413829 379.76428H306.239729c-12.325723 0-22.318308-9.993608-22.318308-22.318308s9.993608-22.318308 22.318308-22.318309h409.1741c12.3247 0 22.318308 9.993608 22.318309 22.318309s-9.992585 22.318308-22.318309 22.318308zM611.259678 491.356844H306.239729c-12.325723 0-22.318308-9.993608-22.318308-22.318308 0-12.325723 9.993608-22.318308 22.318308-22.318308h305.019949c12.3247 0 22.318308 9.993608 22.318308 22.318308 0 12.3247-9.992585 22.318308-22.318308 22.318308zM700.532911 602.948385H306.239729c-12.325723 0-22.318308-9.993608-22.318308-22.318308s9.993608-22.318308 22.318308-22.318308h394.293182c12.325723 0 22.318308 9.993608 22.318308 22.318308s-9.992585 22.318308-22.318308 22.318308z" p-id="4136"></path></svg>