<?xml version="1.0" standalone="no"?><!DOCTYPE svg PUBLIC "-//W3C//DTD SVG 1.1//EN" "http://www.w3.org/Graphics/SVG/1.1/DTD/svg11.dtd"><svg t="1527988947710" class="icon" style="" viewBox="0 0 1024 1024" version="1.1" xmlns="http://www.w3.org/2000/svg" p-id="2957" xmlns:xlink="http://www.w3.org/1999/xlink" width="200" height="200"><defs><style type="text/css"></style></defs><path d="M512 557.223994l249.203712 249.203712c12.491499 12.491499 32.730449 12.489452 45.221948-0.002047s12.493545-32.730449 0.002047-45.221948L557.223994 512l249.203712-249.203712c12.491499-12.491499 12.489452-32.730449-0.002047-45.221948s-32.730449-12.493545-45.221948-0.002047L512 466.776006 262.796288 217.572294c-12.491499-12.491499-32.729425-12.490475-45.220924 0.001023-6.246261 6.246261-9.370415 14.429641-9.370415 22.610974s3.121084 16.365736 9.367345 22.610974L466.774983 512 217.572294 761.203712c-6.246261 6.246261-9.367345 14.428617-9.367345 22.610974s3.125177 16.365736 9.370415 22.610974c12.491499 12.491499 32.729425 12.493545 45.220924 0.002047L512 557.223994z" p-id="2958"></path></svg>