<?xml version="1.0" standalone="no"?><!DOCTYPE svg PUBLIC "-//W3C//DTD SVG 1.1//EN" "http://www.w3.org/Graphics/SVG/1.1/DTD/svg11.dtd"><svg t="1527743080033" class="icon" style="" viewBox="0 0 1024 1024" version="1.1" xmlns="http://www.w3.org/2000/svg" p-id="6862" xmlns:xlink="http://www.w3.org/1999/xlink" width="200" height="200"><defs><style type="text/css"></style></defs><path d="M945.322667 97.024l0.021333 0.149333-148.672 41.194667L796.629333 138.24l-0.618667 0.896C779.690667 145.130667 768 160.661333 768 179.050667l0 640 0 0 0 42.666667c0 58.922667-47.744 106.666667-106.666667 106.666667l-128 0c-58.922667 0-106.666667-47.744-106.666667-106.666667l0-42.666667c0-58.922667 47.744-106.666667 106.666667-106.666667l85.333333 0 0 0 106.666667 0 0-533.333333 0 0c0-37.312 24.106667-68.693333 57.450667-80.277333l-0.128-0.384 147.221333-40.661333c0.938667-0.448 2.005333-0.533333 3.029333-0.832l4.416-1.237333 0.064 0.32c0.448-0.021333 0.810667-0.256 1.28-0.256 11.797333 0 21.333333 9.557333 21.333333 21.333333C960 86.464 953.792 94.229333 945.322667 97.024zM725.333333 819.050667 725.333333 819.050667l0-64-85.333333 0 0 0-106.666667 0c-35.328 0-64 28.650667-64 64l0 42.666667c0 35.349333 28.672 64 64 64l128 0c35.349333 0 64-28.650667 64-64L725.333333 819.050667zM576 627.050667 85.333333 627.050667c-11.797333 0-21.333333-9.536-21.333333-21.333333 0-11.776 9.536-21.333333 21.333333-21.333333l490.666667 0c11.797333 0 21.333333 9.557333 21.333333 21.333333C597.333333 617.493333 587.797333 627.050667 576 627.050667zM576 456.384 85.333333 456.384c-11.797333 0-21.333333-9.557333-21.333333-21.333333s9.536-21.333333 21.333333-21.333333l490.666667 0c11.797333 0 21.333333 9.557333 21.333333 21.333333S587.797333 456.384 576 456.384zM576 285.717333 85.333333 285.717333c-11.797333 0-21.333333-9.557333-21.333333-21.333333s9.536-21.333333 21.333333-21.333333l490.666667 0c11.797333 0 21.333333 9.557333 21.333333 21.333333S587.797333 285.717333 576 285.717333zM85.333333 755.050667l192 0c11.797333 0 21.333333 9.557333 21.333333 21.333333 0 11.797333-9.536 21.333333-21.333333 21.333333L85.333333 797.717333c-11.797333 0-21.333333-9.536-21.333333-21.333333C64 764.608 73.536 755.050667 85.333333 755.050667z" p-id="6863"></path></svg>