<?xml version="1.0" standalone="no"?><!DOCTYPE svg PUBLIC "-//W3C//DTD SVG 1.1//EN" "http://www.w3.org/Graphics/SVG/1.1/DTD/svg11.dtd"><svg t="1528268082903" class="icon" style="" viewBox="0 0 1024 1024" version="1.1" xmlns="http://www.w3.org/2000/svg" p-id="1837" xmlns:xlink="http://www.w3.org/1999/xlink" width="200" height="200"><defs><style type="text/css"></style></defs><path d="M938.666667 1024 85.333333 1024c-46.933333 0-85.333333-38.4-85.333333-85.333333L0 597.333333c0-23.466667 19.2-42.666667 42.666667-42.666667s42.666667 19.2 42.666667 42.666667l0 320c0 12.8 8.533333 21.333333 21.333333 21.333333l810.666667 0c12.8 0 21.333333-8.533333 21.333333-21.333333L938.666667 597.333333l0 0c0-23.466667 19.2-42.666667 42.666667-42.666667s42.666667 19.2 42.666667 42.666667l0 341.333333C1024 985.6 985.6 1024 938.666667 1024zM797.866667 499.2l-256 256 0 0C535.466667 763.733333 524.8 768 512 768s-23.466667-4.266667-29.866667-12.8l0 0-256-256 0 0C217.6 492.8 213.333333 482.133333 213.333333 469.333333c0-23.466667 19.2-42.666667 42.666667-42.666667 12.8 0 23.466667 4.266667 29.866667 12.8l0 0 183.466667 183.466667L469.333333 42.666667c0-23.466667 19.2-42.666667 42.666667-42.666667s42.666667 19.2 42.666667 42.666667l0 580.266667 183.466667-183.466667 0 0c8.533333-8.533333 19.2-12.8 29.866667-12.8 23.466667 0 42.666667 19.2 42.666667 42.666667C810.666667 482.133333 806.4 492.8 797.866667 499.2L797.866667 499.2z" p-id="1838"></path></svg>