<?xml version="1.0" standalone="no"?><!DOCTYPE svg PUBLIC "-//W3C//DTD SVG 1.1//EN" "http://www.w3.org/Graphics/SVG/1.1/DTD/svg11.dtd"><svg t="1527743058314" class="icon" style="" viewBox="0 0 1024 1024" version="1.1" xmlns="http://www.w3.org/2000/svg" p-id="6629" xmlns:xlink="http://www.w3.org/1999/xlink" width="200" height="200"><defs><style type="text/css"></style></defs><path d="M320 880c123.52 0 224-100.48 224-224s-100.48-224-224-224S96 532.48 96 656s100.48 224 224 224zM153.984 752H224v70.016A193.024 193.024 0 0 1 153.984 752zM256 836.8V752h128v84.8c-20.048 7.12-41.536 11.2-64 11.2s-43.952-4.08-64-11.2z m0-116.8v-128h128v128h-128z m160 102.016V752h70.016A193.024 193.024 0 0 1 416 822.016zM500.8 720H416v-128h84.8c7.12 20.048 11.2 41.536 11.2 64s-4.08 43.952-11.2 64z m-14.784-160H416v-70.016A193.024 193.024 0 0 1 486.016 560zM384 475.2V560h-128v-84.8c20.048-7.12 41.536-11.2 64-11.2s43.952 4.08 64 11.2z m-160 14.784V560H153.984A193.024 193.024 0 0 1 224 489.984zM139.2 592H224v128H139.2c-7.12-20.048-11.2-41.536-11.2-64s4.08-43.952 11.2-64zM784 432h-112v96h112v-96z m-32 64h-48v-32h48v32zM928 432h-112v96h112v-96z m-32 64h-48v-32h48v32zM832 688c-52.944 0-96 43.056-96 96s43.056 96 96 96 96-43.056 96-96-43.056-96-96-96z m0 160c-35.296 0-64-28.704-64-64 0-29.728 20.464-54.576 48-61.728V768h32v-45.728c27.536 7.152 48 32 48 61.728 0 35.296-28.704 64-64 64z" fill="" p-id="6630"></path><path d="M160 272H112v-3.568L851.952 79.504l-7.904-31.008L80 243.568V272H32v64H0v640h1024V336H160v-64z m-96 32h64v32H64v-32z m928 640H32V368h960v576z" fill="" p-id="6631"></path></svg>