<?xml version="1.0" standalone="no"?><!DOCTYPE svg PUBLIC "-//W3C//DTD SVG 1.1//EN" "http://www.w3.org/Graphics/SVG/1.1/DTD/svg11.dtd"><svg t="1527861620934" class="icon" style="" viewBox="0 0 1024 1024" version="1.1" xmlns="http://www.w3.org/2000/svg" p-id="27591" xmlns:xlink="http://www.w3.org/1999/xlink" width="200" height="200"><defs><style type="text/css"></style></defs><path d="M1024 589.7216c0 92.9792-29.696 145.92-89.1904 158.8224-59.392 13.0048-95.9488 12.5952-109.6704-1.1264C811.4176 733.696 804.5568 716.1856 804.5568 694.8864L804.5568 512c0-21.2992 6.8608-38.912 20.5824-52.5312 13.7216-13.7216 31.232-20.5824 52.5312-20.5824l36.5568 0c0-111.2064-39.2192-206.1312-117.76-284.5696S623.2064 36.5568 512 36.5568c-111.2064 0-206.1312 39.2192-284.5696 117.76s-117.76 173.3632-117.76 284.5696l36.5568 0c21.2992 0 38.8096 6.8608 52.5312 20.5824C212.5824 473.088 219.4432 490.7008 219.4432 512l0 182.8864c0 21.2992-6.8608 38.8096-20.5824 52.5312C185.1392 761.1392 148.5824 761.856 89.1904 749.6704 29.696 737.4848 0 681.1648 0 580.608 0 505.856 24.3712 459.4688 73.1136 441.1392L73.1136 438.8864c0-121.856 42.7008-225.4848 128-310.8864S390.144 0 512 0s225.4848 42.7008 310.8864 128 128 188.928 128 310.8864C999.6288 470.8352 1024 521.1136 1024 589.7216z" p-id="27592"></path></svg>