<?xml version="1.0" standalone="no"?><!DOCTYPE svg PUBLIC "-//W3C//DTD SVG 1.1//EN" "http://www.w3.org/Graphics/SVG/1.1/DTD/svg11.dtd"><svg t="1528351825417" class="icon" style="" viewBox="0 0 1024 1024" version="1.1" xmlns="http://www.w3.org/2000/svg" p-id="4996" xmlns:xlink="http://www.w3.org/1999/xlink" width="200" height="200"><defs><style type="text/css"></style></defs><path d="M841.519 375.16c-30.791-8.087-103.278-7.992-209.259-10.781 5.036-23.138 6.163-43.986 6.163-81.013 0-88.452-64.421-166.358-121.437-166.358-40.246 0-73.446 32.913-73.954 73.392-0.556 49.632-15.891 135.385-98.608 178.863-6.069 3.203-23.427 11.751-25.958 12.878l1.305 1.11c-12.955-11.156-30.89-19.717-49.306-19.717h-73.959c-40.781 0-73.955 33.188-73.955 73.955v394.453c0 40.78 33.174 73.955 73.955 73.955h73.959c29.349 0 53.877-17.72 65.772-42.562 0.289 0.095 0.814 0.24 1.154 0.288 1.64 0.436 3.538 0.917 5.896 1.542 0.434 0.095 0.675 0.142 1.136 0.287 14.204 3.513 41.529 10.063 99.956 23.496 12.546 2.841 78.676 16.948 147.264 16.948h134.748c41.095 0 71.549-15.322 88.305-47.523 16.376-28.66 96.813-182.178 96.735-398.547-0.012-31.133-21.549-70.845-69.912-84.666zM295.114 831.943c0 13.627-11.022 24.653-24.649 24.653h-73.959c-13.626 0-24.653-11.026-24.653-24.653V437.49c0-13.626 11.027-24.64 24.653-24.64h73.959c13.626 0 24.649 11.014 24.649 24.64v394.453zM861.57 475.335c-10.277 247.765-90.306 359.737-90.306 359.737-7.463 13.434-19.454 21.524-44.873 21.524H591.644c-67.723 0-134.865-15.361-136.599-15.748-102.414-23.59-107.806-25.419-114.236-27.247l3.615-362.218c0-37.475 0.839-28.01 0-27.545 112.622-46.629 146.903-148.895 147.91-232.875 0.147-11.793 9.245-24.653 24.653-24.653 26.078 0 72.131 52.32 72.131 117.056 0 58.451-2.333 68.561-22.824 129.483 246.526 0 244.792 3.525 266.557 9.237 26.965 7.704 29.276 30.045 29.276 37.746-0.001 8.45-0.242 7.222-0.557 15.503z m0 0" p-id="4997"></path></svg>