<?xml version="1.0" standalone="no"?><!DOCTYPE svg PUBLIC "-//W3C//DTD SVG 1.1//EN" "http://www.w3.org/Graphics/SVG/1.1/DTD/svg11.dtd"><svg t="1554710297894" class="icon" style="" viewBox="0 0 1024 1024" version="1.1" xmlns="http://www.w3.org/2000/svg" p-id="6162" xmlns:xlink="http://www.w3.org/1999/xlink" width="512" height="512"><defs><style type="text/css">@font-face { font-weight: 400; font-style: normal; font-family: Inter-Loom; src: url("https://cdn.useloom.com/assets/fonts/inter/Inter-UI-Regular.woff2") format("woff2"); }
@font-face { font-weight: 400; font-style: italic; font-family: Inter-Loom; src: url("https://cdn.useloom.com/assets/fonts/inter/Inter-UI-Italic.woff2") format("woff2"); }
@font-face { font-weight: 500; font-style: normal; font-family: Inter-Loom; src: url("https://cdn.useloom.com/assets/fonts/inter/Inter-UI-Medium.woff2") format("woff2"); }
@font-face { font-weight: 500; font-style: italic; font-family: Inter-Loom; src: url("https://cdn.useloom.com/assets/fonts/inter/Inter-UI-MediumItalic.woff2") format("woff2"); }
@font-face { font-weight: 700; font-style: normal; font-family: Inter-Loom; src: url("https://cdn.useloom.com/assets/fonts/inter/Inter-UI-Bold.woff2") format("woff2"); }
@font-face { font-weight: 700; font-style: italic; font-family: Inter-Loom; src: url("https://cdn.useloom.com/assets/fonts/inter/Inter-UI-BoldItalic.woff2") format("woff2"); }
@font-face { font-weight: 900; font-style: normal; font-family: Inter-Loom; src: url("https://cdn.useloom.com/assets/fonts/inter/Inter-UI-Black.woff2") format("woff2"); }
@font-face { font-weight: 900; font-style: italic; font-family: Inter-Loom; src: url("https://cdn.useloom.com/assets/fonts/inter/Inter-UI-BlackItalic.woff2") format("woff2"); }
</style></defs><path d="M604.71296 63.911253c-53.548373 19.667627-95.06816 77.038933-95.06816 132.222293 0 16.390827 3.822933 43.165013 8.741547 59.55584 4.911787 16.390827 7.645867 30.59712 6.557013 31.143253-0.546133 1.092267-18.03264 9.28768-38.792533 18.57536-72.669867 33.3312-124.576427 101.07904-134.956373 176.479573-18.029227 126.76096 60.101973 230.57408 173.202773 230.57408 72.666453 0 134.95296-43.165013 160.631467-110.36672 16.940373-45.89568 11.47904-104.905387-20.21376-204.89216-8.192-25.678507 54.64064 9.28768 95.617707 54.091093 50.26816 54.637227 68.297387 135.502507 46.987947 214.17984-19.124907 69.389653-77.03552 136.598187-146.428587 168.28416-184.674987 84.691627-385.737387-11.472213-440.920747-210.899627-20.763307-74.8544-13.66016-145.33632 22.401707-222.921387 27.86304-60.101973 86.326613-120.203947 146.97472-150.254933 48.626347-24.040107 58.463573-32.23552 62.83264-52.452693 3.826347-18.57536-8.741547-45.89568-25.678507-55.18336-36.061867-19.67104-118.019413 21.30944-192.8704 96.160427-68.84352 68.84352-101.625173 128.39936-119.657813 216.91392-38.792533 187.948373 57.91744 387.92192 227.84 470.429013 61.740373 30.59712 112.551253 42.06592 182.490453 42.06592 154.077867 0 289.57696-78.67392 355.689813-206.527147 32.781653-62.83264 40.977067-100.532907 37.700267-175.93344-2.73408-72.123733-10.92608-102.720853-40.98048-152.439467-49.718613-82.50368-134.406827-142.05952-216.364373-152.9856l-27.316907-3.280213-9.84064-32.781653c-13.653333-45.349547-12.56448-60.101973 4.37248-73.212587 18.029227-14.206293 37.700267-14.752427 62.286507-1.092267 46.441813 26.22464 54.64064 28.409173 73.216 22.398293 19.124907-6.007467 36.05504-30.047573 36.05504-51.357013 0-19.67104-26.76736-48.080213-63.924907-66.112853C696.507733 55.169707 639.68256 50.797227 604.71296 63.911253zM574.65856 460.032c19.12832 71.031467 20.76672 91.245227 9.291093 113.646933-18.57536 34.966187-72.666453 46.987947-99.44064 21.85216-22.401707-20.759893-29.50144-39.8848-29.50144-78.677333 0-40.434347 10.92608-67.20512 36.604587-90.699093 18.578773-17.483093 57.91744-38.2464 62.28992-33.327787C555.54048 395.014827 564.82816 425.065813 574.65856 460.032z" p-id="6163"></path></svg>