<?xml version="1.0" standalone="no"?><!DOCTYPE svg PUBLIC "-//W3C//DTD SVG 1.1//EN" "http://www.w3.org/Graphics/SVG/1.1/DTD/svg11.dtd"><svg t="1554695227626" class="icon" style="" viewBox="0 0 1024 1024" version="1.1" xmlns="http://www.w3.org/2000/svg" p-id="7417" xmlns:xlink="http://www.w3.org/1999/xlink" width="256" height="256"><defs><style type="text/css">@font-face { font-weight: 400; font-style: normal; font-family: Inter-Loom; src: url("https://cdn.useloom.com/assets/fonts/inter/Inter-UI-Regular.woff2") format("woff2"); }
@font-face { font-weight: 400; font-style: italic; font-family: Inter-Loom; src: url("https://cdn.useloom.com/assets/fonts/inter/Inter-UI-Italic.woff2") format("woff2"); }
@font-face { font-weight: 500; font-style: normal; font-family: Inter-Loom; src: url("https://cdn.useloom.com/assets/fonts/inter/Inter-UI-Medium.woff2") format("woff2"); }
@font-face { font-weight: 500; font-style: italic; font-family: Inter-Loom; src: url("https://cdn.useloom.com/assets/fonts/inter/Inter-UI-MediumItalic.woff2") format("woff2"); }
@font-face { font-weight: 700; font-style: normal; font-family: Inter-Loom; src: url("https://cdn.useloom.com/assets/fonts/inter/Inter-UI-Bold.woff2") format("woff2"); }
@font-face { font-weight: 700; font-style: italic; font-family: Inter-Loom; src: url("https://cdn.useloom.com/assets/fonts/inter/Inter-UI-BoldItalic.woff2") format("woff2"); }
@font-face { font-weight: 900; font-style: normal; font-family: Inter-Loom; src: url("https://cdn.useloom.com/assets/fonts/inter/Inter-UI-Black.woff2") format("woff2"); }
@font-face { font-weight: 900; font-style: italic; font-family: Inter-Loom; src: url("https://cdn.useloom.com/assets/fonts/inter/Inter-UI-BlackItalic.woff2") format("woff2"); }
</style></defs><path d="M512 955.733333c-121.924267 0-227.328-43.895467-313.326933-130.474666C112.162133 739.328 68.266667 633.924267 68.266667 512c0-121.9072 43.605333-227.310933 129.5872-313.2928C284.416 112.725333 390.058667 68.846933 511.914667 68.266667H512c121.873067 0 227.5328 43.588267 314.112 129.536C912.145067 284.450133 955.733333 390.126933 955.733333 512c0 122.487467-43.895467 228.181333-130.474666 314.180267C739.293867 912.128 633.890133 955.733333 512 955.733333z m0.0512-853.333333c-112.554667 0.546133-210.158933 41.096533-290.116267 120.490667C142.626133 302.199467 102.4 399.479467 102.4 512c0 112.4864 40.516267 209.7664 120.405333 289.1264C302.2336 881.1008 399.5136 921.6 512 921.6c112.520533 0 209.800533-40.226133 289.160533-119.586133C881.1008 722.619733 921.6 625.0496 921.6 512c0-112.5376-40.2432-210.1248-119.637333-290.065067C722.1248 142.660267 624.554667 102.4 512.0512 102.4zM510.293333 854.186667c-93.559467 0-174.5408-33.245867-240.708266-98.816l-1.928534-1.911467C201.1136 687.479467 167.253333 606.190933 167.253333 512a17.066667 17.066667 0 0 1 34.133334 0c0 84.736 30.464 157.883733 90.5216 217.429333l1.570133 1.570134c59.665067 59.136 132.573867 89.053867 216.814933 89.053866a17.066667 17.066667 0 1 1 0 34.133334zM836.266667 528.213333a17.066667 17.066667 0 0 1-17.066667-17.066666c0-84.804267-29.917867-158.0032-88.917333-217.531734l-1.809067-1.826133c-59.374933-58.8288-132.369067-89.309867-216.6784-90.402133a17.066667 17.066667 0 0 1 0.221867-34.133334h0.221866c93.4912 1.211733 174.3872 35.0208 240.503467 100.522667l1.5872 1.5872C820.087467 335.752533 853.333333 417.024 853.333333 511.146667a17.066667 17.066667 0 0 1-17.066666 17.066666z" p-id="7418"></path><path d="M512.853333 633.173333c-33.28 0-62.071467-11.1104-85.572266-33.041066l-1.928534-1.928534c-22.971733-23.739733-34.525867-52.394667-34.525866-85.3504 0-33.4336 11.9808-61.952 35.601066-85.572266C448.546133 404.360533 477.184 392.533333 511.146667 392.533333c33.7408 0 62.532267 11.690667 85.589333 34.747734 24.9344 23.364267 37.2224 52.6336 36.420267 85.538133 0.017067 34.013867-11.810133 62.651733-35.157334 85.179733-23.176533 23.176533-51.985067 35.1744-85.1456 35.1744z m-1.706666-172.373333c-15.1552 0-26.606933 4.5568-36.0448 14.318933-11.0592 11.076267-16.008533 22.664533-16.008534 36.881067 0 15.906133 4.8128 27.886933 15.1552 38.570667 10.3424 9.659733 22.749867 14.336 38.6048 14.336 14.813867 0 26.658133-4.949333 37.3248-15.598934 10.1888-9.847467 14.728533-21.282133 14.728534-36.4544 0.341333-15.291733-3.9424-25.4976-13.892267-34.798933a140.6976 140.6976 0 0 1-1.604267-1.570133c-11.025067-11.008-22.869333-15.684267-38.263466-15.684267z" p-id="7419"></path></svg>