<?xml version="1.0" standalone="no"?><!DOCTYPE svg PUBLIC "-//W3C//DTD SVG 1.1//EN" "http://www.w3.org/Graphics/SVG/1.1/DTD/svg11.dtd"><svg t="1527676596028" class="icon" style="" viewBox="0 0 1490 1024" version="1.1" xmlns="http://www.w3.org/2000/svg" p-id="1879" xmlns:xlink="http://www.w3.org/1999/xlink" width="291.015625" height="200"><defs><style type="text/css"></style></defs><path d="M0 65.163636C0 29.174747 29.084579 0 65.19808 0L1424.256465 0C1460.264401 0 1489.454545 29.247991 1489.454545 65.163636 1489.454545 101.152526 1460.369967 130.327273 1424.256465 130.327273L65.19808 130.327273C29.190144 130.327273 0 101.079282 0 65.163636L0 65.163636ZM0 512C0 476.01111 29.084579 446.836364 65.19808 446.836364L1424.256465 446.836364C1460.264401 446.836364 1489.454545 476.084354 1489.454545 512 1489.454545 547.98889 1460.369967 577.163636 1424.256465 577.163636L65.19808 577.163636C29.190144 577.163636 0 547.915646 0 512L0 512ZM0 958.836364C0 922.847474 29.084579 893.672727 65.19808 893.672727L1424.256465 893.672727C1460.264401 893.672727 1489.454545 922.920718 1489.454545 958.836364 1489.454545 994.825253 1460.369967 1024 1424.256465 1024L65.19808 1024C29.190144 1024 0 994.752009 0 958.836364L0 958.836364Z" p-id="1880"></path></svg>