<?xml version="1.0" standalone="no"?><!DOCTYPE svg PUBLIC "-//W3C//DTD SVG 1.1//EN" "http://www.w3.org/Graphics/SVG/1.1/DTD/svg11.dtd"><svg t="1527868348608" class="icon" style="" viewBox="0 0 1024 1024" version="1.1" xmlns="http://www.w3.org/2000/svg" p-id="28973" xmlns:xlink="http://www.w3.org/1999/xlink" width="200" height="200"><defs><style type="text/css"></style></defs><path d="M511.910972 276.347866c43.753024 0 79.233262-35.478281 79.233261-79.237175 0-43.760851-35.480237-79.241088-79.233261-79.241088-43.760851 0-79.239132 35.480237-79.239132 79.241088 0 43.758894 35.478281 79.237175 79.239132 79.237175z m0 158.476307c-43.760851 0-79.239132 35.482194-79.239132 79.239132 0 43.762808 35.478281 79.237175 79.239132 79.237175 43.753024 0 79.233262-35.474367 79.233261-79.237175 0-43.756938-35.480237-79.239132-79.233261-79.239132z m0 316.956527c-43.760851 0-79.239132 35.437191-79.239132 79.237176 0 43.756938 35.478281 79.237175 79.239132 79.237175 43.753024 0 79.233262-35.480237 79.233261-79.237175 0-43.799984-35.480237-79.237175-79.233261-79.237176z" fill="#bfbfbf" p-id="28974"></path></svg>