<?xml version="1.0" standalone="no"?><!DOCTYPE svg PUBLIC "-//W3C//DTD SVG 1.1//EN" "http://www.w3.org/Graphics/SVG/1.1/DTD/svg11.dtd"><svg t="1527841314545" class="icon" style="" viewBox="0 0 1024 1024" version="1.1" xmlns="http://www.w3.org/2000/svg" p-id="4255" xmlns:xlink="http://www.w3.org/1999/xlink" width="200" height="200"><defs><style type="text/css"></style></defs><path d="M924.542066 931.835632c53.24775-31.743851 53.24775-83.967606 0-116.735453L795.518671 737.276544c-54.271746-31.743851-97.279544-7.167966-97.279544 55.295741v162.815237c0 61.439712 43.007798 87.039592 97.279544 54.271745l129.023395-77.823635z m-21.503899-421.886022H99.201935c-28.671866 0-51.19976-23.55189-51.19976-51.19976s22.527894-51.19976 51.19976-51.19976h803.836232c27.64787 0 51.19976 22.527894 51.19976 51.19976s-23.55189 51.19976-51.19976 51.19976zM484.22413 917.499699H99.201935c-28.671866 0-51.19976-22.527894-51.19976-51.19976s22.527894-51.19976 51.19976-51.19976h385.022195c27.64787 0 51.19976 22.527894 51.19976 51.19976s-23.55189 51.19976-51.19976 51.19976z m430.077984-816.124174H99.201935C70.530069 101.375525 48.002175 78.84763 48.002175 51.19976 48.002175 22.527894 70.530069 0 99.201935 0h815.100179c28.671866 0 51.19976 22.527894 51.19976 51.19976 0 27.64787-22.527894 50.175765-51.19976 50.175765z" p-id="4256"></path></svg>