<?xml version="1.0" standalone="no"?><!DOCTYPE svg PUBLIC "-//W3C//DTD SVG 1.1//EN" "http://www.w3.org/Graphics/SVG/1.1/DTD/svg11.dtd"><svg t="1527846435743" class="icon" style="" viewBox="0 0 1024 1024" version="1.1" xmlns="http://www.w3.org/2000/svg" p-id="968" xmlns:xlink="http://www.w3.org/1999/xlink" width="200" height="200"><defs><style type="text/css"></style></defs><path d="M416 336v352l28.944 12.576 227.056-176v-25.152l-227.056-176L416 336z m32 32.928L630.096 512 448 655.072V368.928z" fill="" p-id="969"></path><path d="M512 0C375.248 0 246.672 53.28 149.984 150 53.264 246.672 0 375.248 0 512s53.264 265.328 149.984 362.016C246.672 970.736 375.248 1024 512 1024s265.328-53.28 362.032-150C970.736 777.328 1024 648.752 1024 512s-53.264-265.328-149.984-362.016C777.328 53.264 648.752 0 512 0z m339.408 851.392C760.736 942.064 640.208 992 512 992c-128.208 0-248.736-49.936-339.392-140.624C81.936 760.736 32 640.208 32 512s49.936-248.736 140.608-339.392C263.264 81.936 383.792 32 512 32s248.736 49.952 339.408 140.624C942.08 263.264 992 383.792 992 512s-49.92 248.736-140.592 339.392z" fill="" p-id="970"></path></svg>