<?xml version="1.0" standalone="no"?><!DOCTYPE svg PUBLIC "-//W3C//DTD SVG 1.1//EN" "http://www.w3.org/Graphics/SVG/1.1/DTD/svg11.dtd"><svg t="1527840867556" class="icon" style="" viewBox="0 0 1024 1024" version="1.1" xmlns="http://www.w3.org/2000/svg" p-id="6043" xmlns:xlink="http://www.w3.org/1999/xlink" width="200" height="200"><defs><style type="text/css"></style></defs><path d="M556.297787 285.360161h185.432595v184.690865l282.269618-205.294487L741.730382 59.462052v184.690866h-185.432595c-147.686761 0-267.847082 120.160322-267.847083 267.847082 0 124.960966-101.678873 226.639839-226.639839 226.639839H20.603622a20.603622 20.603622 0 1 0 0 41.207243h41.207243c147.686761 0 267.847082-120.160322 267.847083-267.847082 0-124.960966 101.678873-226.639839 226.639839-226.639839z m226.639839-144.967083l171.01006 124.363461-171.01006 124.363461V140.393078zM20.603622 285.360161h41.207243c55.897626 0 109.57006 20.48 151.148169 57.669537a20.562414 20.562414 0 0 0 29.092314-1.607082 20.603622 20.603622 0 0 0-1.607082-29.092314A267.496821 267.496821 0 0 0 61.810865 244.152918H20.603622a20.603622 20.603622 0 1 0 0 41.207243zM741.730382 738.639839h-185.432595a226.433803 226.433803 0 0 1-149.953159-56.618752 20.603622 20.603622 0 1 0-27.237988 30.905432 267.599839 267.599839 0 0 0 177.21175 66.920563h185.432596v184.690866l282.269618-205.294487L741.730382 553.948974v184.690865z m41.207244-103.759839l171.01006 124.363461-171.01006 124.363461V634.88z" fill="" p-id="6044"></path></svg>