<?xml version="1.0" standalone="no"?><!DOCTYPE svg PUBLIC "-//W3C//DTD SVG 1.1//EN" "http://www.w3.org/Graphics/SVG/1.1/DTD/svg11.dtd"><svg t="1527743131842" class="icon" style="" viewBox="0 0 1024 1024" version="1.1" xmlns="http://www.w3.org/2000/svg" p-id="7879" xmlns:xlink="http://www.w3.org/1999/xlink" width="200" height="200"><defs><style type="text/css"></style></defs><path d="M341.312 687.296v336.512h341.312v-336.512H341.312z m210.56 174.912H482.176v-18.752h23.488v-61.824c0-3.072 0.064-6.208 0.256-9.472l-13.824 11.584a7.68 7.68 0 0 1-3.648 1.6 7.552 7.552 0 0 1-3.392 0 6.784 6.784 0 0 1-2.816-1.024 6.912 6.912 0 0 1-1.856-1.6l-8.256-10.944 38.144-32.128h21.504v103.808h20.096v18.752zM682.624 855.552v168.256H1024v-168.256h-341.376z m210.624 124.736a34.56 34.56 0 0 1-9.408 12.032 42.496 42.496 0 0 1-13.824 7.232 59.328 59.328 0 0 1-16.256 2.24 60.544 60.544 0 0 1-15.552-1.728 37.76 37.76 0 0 1-21.376-16.128 67.392 67.392 0 0 1-6.912-14.784l11.648-4.736a14.4 14.4 0 0 1 8.384-0.896c2.56 0.512 4.416 1.728 5.504 3.84a30.08 30.08 0 0 0 8.064 10.176 18.88 18.88 0 0 0 17.6 1.664 16.128 16.128 0 0 0 5.376-3.712 17.856 17.856 0 0 0 3.2-5.312 17.856 17.856 0 0 0 1.088-6.016 39.168 39.168 0 0 0-0.576-7.04 9.472 9.472 0 0 0-3.008-5.44c-1.728-1.536-4.16-2.752-7.616-3.52s-8.128-1.28-14.144-1.28v-17.856a44.288 44.288 0 0 0 12.352-1.344 17.408 17.408 0 0 0 7.168-3.136 9.408 9.408 0 0 0 3.456-5.056 24.128 24.128 0 0 0 0.832-6.336c0-4.864-1.152-8.704-3.52-11.2-2.24-2.688-5.824-3.968-10.624-3.968a15.36 15.36 0 0 0-15.168 10.624c-1.216 3.008-2.88 5.248-4.736 6.144-1.856 1.024-4.544 1.28-8.128 0.768l-13.76-2.368a44.032 44.032 0 0 1 5.12-16 38.144 38.144 0 0 1 22.464-18.176 54.4 54.4 0 0 1 31.872 0.448 33.728 33.728 0 0 1 11.904 6.784c3.328 2.88 5.76 6.336 7.424 10.176a35.136 35.136 0 0 1 1.28 22.272 24.128 24.128 0 0 1-3.456 7.552 21.696 21.696 0 0 1-5.696 5.632 36.992 36.992 0 0 1-7.808 3.84c13.504 4.672 20.352 13.76 20.352 27.52a37.056 37.056 0 0 1-3.52 17.088zM0 784.448v239.36h341.312v-239.36H0z m224.768 183.168H138.752v-8.384a14.336 14.336 0 0 1 4.544-10.304l35.264-35.456c3.072-3.136 5.696-6.016 7.936-8.704A48.448 48.448 0 0 0 192 896.768a32.512 32.512 0 0 0 4.416-16.512 16.384 16.384 0 0 0-3.456-11.2c-2.368-2.688-5.888-3.968-10.624-3.968a15.36 15.36 0 0 0-15.296 10.688c-1.152 3.136-2.688 5.184-4.608 6.08-1.856 1.024-4.608 1.28-8.128 0.768l-13.76-2.368a45.696 45.696 0 0 1 5.184-16 38.784 38.784 0 0 1 9.472-11.456 41.088 41.088 0 0 1 12.992-6.72 53.696 53.696 0 0 1 15.68-2.112c6.08 0 11.52 0.768 16.32 2.56a33.408 33.408 0 0 1 23.04 33.024 40.576 40.576 0 0 1-1.92 12.352 51.84 51.84 0 0 1-5.184 10.944 82.048 82.048 0 0 1-7.616 9.92 161.408 161.408 0 0 1-9.216 9.664l-23.936 24.64a78.656 78.656 0 0 1 17.6-2.944h22.784c2.816 0 5.056 0.832 6.656 2.304a8.064 8.064 0 0 1 2.432 6.144v15.04zM341.312 705.6H39.424L0 784.448h341.312zM637.184 608.448H380.736l-39.424 78.848h341.312zM978.496 776.704h-295.872v78.848H1024zM632.832 624.832c0 17.856-47.808 32.128-120.832 32.128s-120.832-14.272-120.832-32.128c0-17.984 54.144-32.32 120.832-32.32 66.752 0 120.832 14.272 120.832 32.32zM632.832 624.832c0 17.856-47.808 32.128-120.832 32.128s-120.832-14.272-120.832-32.128v12.288c0 18.048 47.872 32.192 120.832 32.192 73.024 0 120.832-14.144 120.832-32.192v-12.288zM512 457.92c10.368 0 18.688 3.776 18.688 8.384 0 135.68 65.984 112.896 65.984 133.184 0 13.376-40.064 25.792-84.672 25.792-44.544 0-84.608-12.416-84.608-25.792 0-20.288 65.92 1.536 65.92-133.184 0-4.608 8.32-8.384 18.688-8.384zM427.392 607.68c0 13.44 40 25.92 84.608 25.92 44.608 0 84.672-12.48 84.672-25.92v-8.128c0 13.312-40.064 25.856-84.672 25.856-44.544 0-84.608-12.544-84.608-25.856v8.128zM452.736 412.992c-41.152 0-72.896-12.672-94.272-37.696-37.312-43.648-35.776-114.112-33.472-141.952h100.416a14.208 14.208 0 0 0 0-28.352H312.32a14.144 14.144 0 0 0-13.952 11.904c-0.704 4.544-17.024 111.552 38.464 176.64 27.008 31.744 66.048 47.808 115.904 47.808a14.144 14.144 0 0 0 0-28.352zM725.568 216.896a14.08 14.08 0 0 0-13.952-11.904H598.592a14.144 14.144 0 0 0 0 28.288h100.416c2.304 27.84 3.968 98.112-33.408 141.888-21.376 25.152-53.12 37.824-94.336 37.824a14.208 14.208 0 0 0 0 28.352c49.856 0 88.832-16 115.84-47.808 55.552-65.088 39.232-172.096 38.464-176.64zM532.544 502.4a332.352 332.352 0 0 1-1.856-36.032c0-4.672-8.384-8.384-18.688-8.384s-18.688 3.712-18.688 8.384c0 13.504-0.704 25.472-1.856 36.032a106.624 106.624 0 0 0 41.088 0zM475.776 486.4a36.224 32.64 0 1 0 72.448 0 36.224 32.64 0 1 0-72.448 0ZM512 492.48c88.064 0 131.456-98.752 131.456-204.352V191.616c0-18.88-35.456-41.792-131.456-41.792-96.064 0-131.456 22.912-131.456 41.856v96.512C380.48 393.728 423.936 492.48 512 492.48zM446.976 442.304c-47.04-65.856-50.432-142.272-37.504-234.24-14.208-6.208-20.48-9.344-28.992-16.448v96.512c0 98.624 37.888 191.232 114.624 203.072a216.32 216.32 0 0 1-48.128-48.896zM512 182.656c65.664 0 118.976 17.984 118.976 28.8 0 10.816-53.312 25.536-118.976 25.536s-118.976-14.72-118.976-25.536c0-10.88 53.312-28.8 118.976-28.8z" p-id="7880"></path></svg>