<?xml version="1.0" standalone="no"?><!DOCTYPE svg PUBLIC "-//W3C//DTD SVG 1.1//EN" "http://www.w3.org/Graphics/SVG/1.1/DTD/svg11.dtd"><svg t="1527840859175" class="icon" style="" viewBox="0 0 1024 1024" version="1.1" xmlns="http://www.w3.org/2000/svg" p-id="5914" xmlns:xlink="http://www.w3.org/1999/xlink" width="200" height="200"><defs><style type="text/css"></style></defs><path d="M33.867704 502.038911a19.922179 19.922179 0 0 0 19.922179-19.922179c0-120.828016 98.315953-219.143969 219.143969-219.143969h478.132296v178.582412L1024 243.050584 751.066148 44.545992V223.128405h-478.132296c-142.802179 0-258.988327 116.186148-258.988327 258.988327a19.922179 19.922179 0 0 0 19.922179 19.922179z m757.042802-379.2386L956.264591 243.050584l-165.354085 120.250272V122.800311zM990.132296 521.961089a19.922179 19.922179 0 0 0-19.922179 19.922179c0 120.828016-98.315953 219.143969-219.143969 219.143969h-478.132296v-178.582412L0 780.949416l272.933852 198.504592V800.871595h478.132296c142.802179 0 258.988327-116.186148 258.988327-258.988327a19.922179 19.922179 0 0 0-19.922179-19.922179z m-757.042802 379.2386L67.735409 780.949416l165.354085-120.250272v240.500545z" fill="" p-id="5915"></path></svg>