<?xml version="1.0" standalone="no"?><!DOCTYPE svg PUBLIC "-//W3C//DTD SVG 1.1//EN" "http://www.w3.org/Graphics/SVG/1.1/DTD/svg11.dtd"><svg t="1527991508730" class="icon" style="" viewBox="0 0 1024 1024" version="1.1" xmlns="http://www.w3.org/2000/svg" p-id="6625" xmlns:xlink="http://www.w3.org/1999/xlink" width="200" height="200"><defs><style type="text/css"></style></defs><path d="M560.448 97.472C531.584 84.352 498.496 88.64 474.112 108.672L245.44 321.344 135.936 321.344c-39.296 0-71.168 31.872-71.168 71.232l0 239.552c0 39.296 31.872 71.104 71.168 71.104l109.44 0 229.376 212.672 0.256 0.256c14.784 11.776 32.832 17.792 51.136 17.792 10.88 0 22.016-2.176 32.384-6.656 28.032-12.032 46.272-37.12 49.024-67.2C607.872 857.472 608 854.656 608 851.968L608 171.392c0-0.832 0-1.792 0-2.688C606.976 137.728 588.736 110.4 560.448 97.472zM563.968 840.384c0 1.536-0.128 3.2-0.256 4.928-1.408 16.064-11.264 29.568-26.304 35.968-15.36 6.592-32.256 4.288-45.248-5.952L266.624 666.24c-2.816-2.432-6.272-3.712-9.792-4.032-1.152-0.128-2.432-0.256-3.712-0.256L142.72 662.08c-18.752 0-33.92-15.232-33.92-33.984L108.8 396.608c0-18.816 15.168-33.984 33.92-33.984l109.632 0c0.256 0 0.576-0.064 0.896-0.064 4.416 0.384 8.896-0.896 12.544-3.904L491.52 149.312c13.376-11.008 30.976-13.312 46.912-6.016 15.552 6.976 25.024 21.312 25.472 38.08C563.968 181.888 563.968 182.4 563.968 182.912L563.968 840.384z" p-id="6626"></path><path d="M910.72 307.328c-27.776-55.04-67.264-104.448-114.752-144-7.872-6.592-19.648-5.184-25.728 2.88l0 0.064c-5.888 7.616-4.736 18.56 2.752 24.768 95.616 79.296 150.272 194.944 150.272 319.936 0 124.16-54.016 239.36-148.864 318.656-7.36 6.272-8.512 17.216-2.624 24.832 6.144 8.128 17.984 9.408 25.728 2.944 47.104-39.552 86.272-88.96 113.728-143.68 31.744-63.168 48-131.392 48-202.688C959.232 439.36 942.976 370.816 910.72 307.328z" p-id="6627"></path><path d="M692.992 315.584C684.736 309.12 672.768 311.04 666.88 319.616c-5.248 7.808-3.648 18.304 3.648 24.192 51.136 40.832 81.152 102.656 81.152 168.512 0 64.768-29.376 126.144-79.232 166.976-7.232 5.952-8.64 16.448-3.392 24.192 6.144 8.704 18.24 10.304 26.368 3.584 58.112-47.616 92.224-119.104 92.224-194.688C787.648 435.456 752.64 363.2 692.992 315.584z" p-id="6628"></path></svg>